#N canvas 613 166 952 962 10;
#X obj 651 587 netsend -u -b;
#X obj 651 450 list prepend send;
#X obj 651 473 list trim;
#X msg 749 550 disconnect;
#X obj 343 104 loadbang;
#X obj 344 271 loadbang;
#X floatatom 125 384 5 0 2 0 - carrier -, f 5;
#X obj 344 354 loadbang;
#X obj 345 437 loadbang;
#X obj 125 122 hsl 128 15 0 100 0 0 empty empty empty -2 -8 0 10 -262144
-1 -1 0 1;
#X floatatom 304 136 5 0 0 0 - - -, f 5;
#X obj 122 452 hsl 128 15 0.01 2 1 0 empty empty empty -2 -8 0 10 -262144
-1 -1 11039 1;
#X floatatom 303 467 5 0 0 0 - - -, f 5;
#X obj 344 188 loadbang;
#X obj 123 204 hsl 128 15 1 100 0 0 empty empty empty -2 -8 0 10 -262144
-1 -1 12700 1;
#X floatatom 302 218 5 0 0 0 - - -, f 5;
#X msg 748 507 connect 10.11.12.1 5112;
#X msg 344 294 set texture;
#X obj 123 288 hsl 128 15 0.011 1.1 0 0 empty empty empty -2 -8 0 10
-262144 -1 -1 11534 1;
#X floatatom 296 303 5 0 0 0 - - -, f 5;
#X text 123 271 Texture;
#X text 124 366 Playback Mode;
#X msg 344 377 set mode;
#X msg 344 211 set length;
#X obj 346 522 loadbang;
#X text 123 520 Filter Cutoff in Hz;
#X obj 122 538 hsl 128 15 20 10000 1 0 empty empty empty -2 -8 0 10
-262144 -1 -1 12700 1;
#X floatatom 304 552 5 0 0 0 - - -, f 5;
#X text 122 433 Playback Pitch;
#X msg 346 545 set cutoff;
#X msg 343 126 set start;
#X text 125 104 Loop Start;
#X text 122 186 Loop Length;
#X msg 345 460 set pitch;
#X obj 346 604 loadbang;
#X msg 346 627 set bit;
#X text 118 602 Bit Depth;
#X obj 118 620 hsl 128 15 2 12 0 1 empty empty empty -2 -8 0 10 -262144
-1 -1 12700 1;
#X floatatom 307 636 5 2 12 0 - - -, f 5;
#X msg 311 605 12;
#X msg 300 523 10000;
#X msg 303 433 1;
#X msg 296 268 1;
#X msg 303 188 100;
#X msg 303 105 0;
#X obj 346 687 loadbang;
#X obj 124 702 hsl 128 15 0.5 4410 0 1 empty empty empty -2 -8 0 10
-262144 -1 -1 0 1;
#X floatatom 305 719 5 2 12 0 - - -, f 5;
#X msg 345 794 set funky;
#X obj 121 781 tgl 15 0 empty empty empty 17 7 0 10 -262144 -1 -1 0
1;
#X floatatom 304 795 5 2 12 0 - - -, f 5;
#X obj 346 770 loadbang;
#X obj 120 862 tgl 15 0 empty empty empty 17 7 0 10 -262144 -1 -1 0
1;
#X floatatom 303 877 5 2 12 0 - - -, f 5;
#X obj 345 854 loadbang;
#X text 120 844 Reset!;
#X msg 344 878 set reset;
#X obj 344 901 oscformat -ff reset;
#X text 124 684 Spread;
#X msg 346 710 set spread;
#X obj 671 145 bng 15 250 50 0 empty empty empty 17 7 0 10 -262144
-1 -1;
#X obj 346 567 oscformat -f cutoff;
#X obj 346 485 oscformat -f pitch;
#X obj 344 400 oscformat -f mode;
#X obj 344 317 oscformat -f texture;
#X obj 344 234 oscformat -f length;
#X obj 343 152 oscformat -f start;
#X obj 346 650 oscformat -f bit;
#X obj 346 733 oscformat -f spread;
#X obj 345 817 oscformat -f funky;
#X msg 306 685 0.5;
#X text 215 67 Rain;
#X text 120 763 Funky;
#X text 661 124 Start;
#X connect 1 0 2 0;
#X connect 2 0 0 0;
#X connect 3 0 0 0;
#X connect 4 0 30 0;
#X connect 4 0 44 0;
#X connect 5 0 17 0;
#X connect 5 0 42 0;
#X connect 6 0 63 0;
#X connect 7 0 22 0;
#X connect 8 0 33 0;
#X connect 8 0 41 0;
#X connect 9 0 10 0;
#X connect 10 0 66 0;
#X connect 11 0 12 0;
#X connect 12 0 62 0;
#X connect 13 0 23 0;
#X connect 13 0 43 0;
#X connect 13 0 14 0;
#X connect 14 0 15 0;
#X connect 15 0 65 0;
#X connect 16 0 0 0;
#X connect 17 0 64 0;
#X connect 18 0 19 0;
#X connect 19 0 64 0;
#X connect 22 0 63 0;
#X connect 23 0 65 0;
#X connect 24 0 29 0;
#X connect 24 0 40 0;
#X connect 26 0 27 0;
#X connect 27 0 61 0;
#X connect 29 0 61 0;
#X connect 30 0 66 0;
#X connect 33 0 62 0;
#X connect 34 0 35 0;
#X connect 34 0 39 0;
#X connect 35 0 67 0;
#X connect 37 0 38 0;
#X connect 38 0 67 0;
#X connect 39 0 37 0;
#X connect 40 0 26 0;
#X connect 41 0 11 0;
#X connect 42 0 18 0;
#X connect 43 0 14 0;
#X connect 44 0 9 0;
#X connect 45 0 59 0;
#X connect 45 0 70 0;
#X connect 46 0 47 0;
#X connect 47 0 68 0;
#X connect 48 0 69 0;
#X connect 49 0 50 0;
#X connect 50 0 69 0;
#X connect 51 0 48 0;
#X connect 52 0 53 0;
#X connect 53 0 57 0;
#X connect 54 0 56 0;
#X connect 56 0 57 0;
#X connect 57 0 1 0;
#X connect 59 0 68 0;
#X connect 60 0 44 0;
#X connect 60 0 43 0;
#X connect 60 0 42 0;
#X connect 60 0 41 0;
#X connect 60 0 40 0;
#X connect 60 0 39 0;
#X connect 60 0 70 0;
#X connect 61 0 1 0;
#X connect 62 0 1 0;
#X connect 63 0 1 0;
#X connect 64 0 1 0;
#X connect 65 0 1 0;
#X connect 66 0 1 0;
#X connect 67 0 1 0;
#X connect 68 0 1 0;
#X connect 69 0 1 0;
#X connect 70 0 46 0;
