#N canvas 460 187 878 1004 10;
#X obj 707 302 netsend -u -b;
#X obj 707 165 list prepend send;
#X obj 707 188 list trim;
#X msg 804 222 connect 10.11.12.1 6666;
#X msg 805 265 disconnect;
#X obj 804 198 loadbang;
#X obj 343 104 loadbang;
#X text 213 64 Grainplayer 1;
#X floatatom 125 206 5 0 0 0 - carrier -;
#X obj 344 173 loadbang;
#X floatatom 124 275 5 1 6 0 - carrier -;
#X obj 344 243 loadbang;
#X floatatom 126 348 5 -12 12 0 - carrier -;
#X obj 344 316 loadbang;
#X floatatom 126 423 5 0 2 0 - carrier -;
#X obj 345 392 loadbang;
#X obj 347 473 loadbang;
#X obj 131 118 hsl 128 15 0 100 0 0 empty empty empty -2 -8 0 10 -262144
-1 -1 6100 1;
#X floatatom 304 132 5 0 0 0 - - -;
#X text 123 97 Position;
#X text 117 186 Loop Length Seconds;
#X text 121 251 Playback Style 1-6;
#X text 120 327 Pitch +- 12 Semintones;
#X text 123 405 Filter Type;
#X text 124 466 Filter Cutoff in Hz;
#X obj 129 489 hsl 128 15 1 21050 1 0 empty empty empty -2 -8 0 10
-262144 -1 -1 0 1;
#X floatatom 305 503 5 0 0 0 - - -;
#X obj 346 623 loadbang;
#X obj 130 639 hsl 128 15 1 100 1 0 empty empty empty -2 -8 0 10 -262144
-1 -1 0 1;
#X floatatom 304 653 5 0 0 0 - - -;
#X text 126 614 LFO Speed in Hz;
#X floatatom 129 577 5 0 3 0 - carrier -;
#X obj 347 545 loadbang;
#X text 123 557 LFO Type;
#X msg 344 196 set length1;
#X obj 344 219 oscformat -f length1;
#X msg 344 266 set pbstyle1;
#X obj 344 289 oscformat -f pbstyle1;
#X obj 344 362 oscformat -f pitch1;
#X msg 344 339 set pitch1;
#X obj 345 438 oscformat -f filttyp1;
#X msg 345 415 set filttyp1;
#X msg 347 496 set cutoff1;
#X obj 347 519 oscformat -f cutoff1;
#X msg 347 568 set lfotyp1;
#X obj 347 591 oscformat -f lfotyp1;
#X msg 346 646 set lfo1;
#X obj 346 669 oscformat -f lfo1;
#X msg 343 126 set pos1;
#X obj 343 150 oscformat -f pos1;
#X connect 1 0 2 0;
#X connect 3 0 0 0;
#X connect 4 0 0 0;
#X connect 5 0 3 0;
#X connect 6 0 48 0;
#X connect 8 0 35 0;
#X connect 9 0 34 0;
#X connect 10 0 37 0;
#X connect 11 0 36 0;
#X connect 12 0 38 0;
#X connect 13 0 39 0;
#X connect 14 0 40 0;
#X connect 15 0 41 0;
#X connect 16 0 42 0;
#X connect 17 0 18 0;
#X connect 18 0 49 0;
#X connect 25 0 26 0;
#X connect 26 0 43 0;
#X connect 27 0 46 0;
#X connect 28 0 29 0;
#X connect 29 0 47 0;
#X connect 31 0 45 0;
#X connect 32 0 44 0;
#X connect 34 0 35 0;
#X connect 36 0 37 0;
#X connect 39 0 38 0;
#X connect 41 0 40 0;
#X connect 42 0 43 0;
#X connect 44 0 45 0;
#X connect 46 0 47 0;
#X connect 48 0 49 0;
#X connect 49 0 0 0;
