#N canvas 507 24 1075 1004 10;
#X obj 707 302 netsend -u -b;
#X obj 707 165 list prepend send;
#X obj 707 188 list trim;
#X msg 805 265 disconnect;
#X obj 343 104 loadbang;
#X text 213 64 Grainplayer 1;
#X floatatom 125 244 5 0 0 0 - carrier -;
#X obj 344 211 loadbang;
#X floatatom 124 313 5 1 6 0 - carrier -;
#X obj 344 281 loadbang;
#X floatatom 126 386 5 -12 12 0 - carrier -;
#X obj 344 354 loadbang;
#X floatatom 126 461 5 0 2 0 - carrier -;
#X obj 345 430 loadbang;
#X obj 347 511 loadbang;
#X obj 131 118 hsl 128 15 0 100 0 0 empty empty empty -2 -8 0 10 -262144
-1 -1 0 1;
#X floatatom 304 132 5 0 0 0 - - -;
#X text 123 97 Position;
#X text 117 224 Loop Length Seconds;
#X text 121 289 Playback Style 1-6;
#X text 120 365 Pitch +- 12 Semintones;
#X text 123 443 Filter Type;
#X text 124 504 Filter Cutoff in Hz;
#X obj 129 527 hsl 128 15 1 21050 1 0 empty empty empty -2 -8 0 10
-262144 -1 -1 0 1;
#X floatatom 305 541 5 0 0 0 - - -;
#X obj 346 661 loadbang;
#X obj 130 677 hsl 128 15 1 100 1 0 empty empty empty -2 -8 0 10 -262144
-1 -1 0 1;
#X floatatom 304 691 5 0 0 0 - - -;
#X text 126 652 LFO Speed in Hz;
#X floatatom 129 615 5 0 3 0 - carrier -;
#X obj 347 583 loadbang;
#X text 123 595 LFO Type;
#X msg 344 234 set length1;
#X msg 344 304 set pbstyle1;
#X msg 344 377 set pitch1;
#X msg 345 453 set filttyp1;
#X msg 347 534 set cutoff1;
#X msg 347 606 set lfotyp1;
#X msg 346 684 set lfo1;
#X msg 343 126 set pos1;
#X text 652 556 OSC ID + pfad für Position mitpack;
#X obj 124 523;
#X obj 343 175 oscformat -ff pos1;
#X obj 344 257 oscformat -ff length1;
#X obj 344 327 oscformat -ff pbstyle1;
#X obj 344 400 oscformat -ff pitch1;
#X obj 345 476 oscformat -ff filttyp1;
#X obj 347 557 oscformat -ff cutoff1;
#X obj 347 629 oscformat -ff lfotyp1;
#X obj 346 707 oscformat -ff lfo1;
#X obj 345 150 pack 0 f;
#X msg 804 222 connect 10.11.12.1 5111;
#X connect 1 0 2 0;
#X connect 2 0 0 0;
#X connect 3 0 0 0;
#X connect 4 0 39 0;
#X connect 6 0 43 0;
#X connect 7 0 32 0;
#X connect 8 0 44 0;
#X connect 9 0 33 0;
#X connect 10 0 45 0;
#X connect 11 0 34 0;
#X connect 12 0 46 0;
#X connect 13 0 35 0;
#X connect 14 0 36 0;
#X connect 15 0 16 0;
#X connect 16 0 50 1;
#X connect 23 0 24 0;
#X connect 24 0 47 0;
#X connect 25 0 38 0;
#X connect 26 0 27 0;
#X connect 27 0 49 0;
#X connect 29 0 48 0;
#X connect 30 0 37 0;
#X connect 32 0 43 0;
#X connect 33 0 44 0;
#X connect 34 0 45 0;
#X connect 35 0 46 0;
#X connect 36 0 47 0;
#X connect 37 0 48 0;
#X connect 38 0 49 0;
#X connect 39 0 42 0;
#X connect 42 0 1 0;
#X connect 50 0 42 0;
#X connect 51 0 0 0;
